<?xml version="1.0" standalone="no"?>
<!DOCTYPE svg PUBLIC "-//W3C//DTD SVG 20010904//EN"
 "http://www.w3.org/TR/2001/REC-SVG-20010904/DTD/svg10.dtd">
<svg version="1.0" xmlns="http://www.w3.org/2000/svg"
 width="360.000000pt" height="360.000000pt" viewBox="0 0 360.000000 360.000000"
 preserveAspectRatio="xMidYMid meet">
<metadata>
Created by potrace 1.11, written by Peter Selinger 2001-2013
</metadata>
<g transform="translate(0.000000,360.000000) scale(0.100000,-0.100000)"
fill="#000000" stroke="none">
<path d="M2050 3383 c-86 -31 -173 -143 -214 -278 -21 -71 -45 -192 -47 -247
-4 -67 -15 -78 -22 -21 -20 156 -80 324 -146 413 -87 116 -233 155 -357 95
-88 -43 -139 -125 -152 -244 -7 -66 -7 -66 -37 -63 -46 5 -149 -32 -203 -72
-77 -56 -130 -147 -132 -222 -1 -71 90 -202 180 -259 111 -70 360 -135 620
-161 78 -8 90 -14 29 -15 -230 -4 -469 -50 -614 -118 -98 -47 -152 -93 -190
-162 -25 -46 -29 -65 -30 -129 0 -65 4 -82 29 -128 47 -84 113 -126 229 -144
l75 -11 5 -57 c14 -154 152 -301 286 -303 34 0 62 8 98 27 139 76 205 180 269
421 l24 90 -5 -70 c-3 -38 -7 -86 -10 -105 -3 -19 -7 -55 -10 -80 -36 -291
-120 -589 -225 -805 -74 -152 -138 -249 -234 -352 -86 -92 -94 -117 -48 -163
16 -15 48 -34 72 -41 l43 -13 47 51 c121 132 259 391 352 663 81 237 145 558
148 745 l1 50 28 -80 c38 -111 84 -187 144 -241 72 -65 121 -88 187 -88 138
-1 275 143 288 301 l5 63 37 0 c49 0 134 26 182 56 106 67 145 213 89 338 -77
176 -407 288 -854 291 -26 0 -47 3 -47 6 0 3 39 12 88 19 123 17 372 81 466
119 95 38 201 107 239 155 108 139 106 265 -7 369 -73 69 -196 114 -268 100
-26 -5 -28 -3 -28 25 0 56 -38 156 -77 201 -71 83 -192 113 -303 74z"/>
</g>
</svg>
